<svg version="1.1" id="Layer_1" xmlns="http://www.w3.org/2000/svg" xmlns:xlink="http://www.w3.org/1999/xlink" x="0px" y="0px"
	 width="100%" viewBox="0 0 500 500" enable-background="new 0 0 500 500" xml:space="preserve">
<path fill="#242424" opacity="1.000000" stroke="none" 
	d="
M243.000000,501.000000 
	C162.000015,501.000000 81.500038,501.000000 1.000043,501.000000 
	C1.000029,334.333405 1.000029,167.666779 1.000014,1.000133 
	C167.666565,1.000088 334.333130,1.000088 500.999756,1.000044 
	C500.999847,167.666519 500.999847,334.333038 500.999939,500.999786 
	C415.166656,501.000000 329.333344,501.000000 243.000000,501.000000 
M168.201920,196.107071 
	C168.423935,196.110245 168.645950,196.113419 168.958511,196.946213 
	C176.921295,246.890167 184.884094,296.834137 192.841202,346.742432 
	C209.192429,346.742432 225.121170,346.742432 241.324493,346.742432 
	C249.605362,295.892731 257.852631,245.249420 266.099915,194.606094 
	C266.501190,194.652023 266.902496,194.697937 267.303802,194.743851 
	C267.303802,245.345047 267.303802,295.946228 267.303802,346.661591 
	C281.398895,346.661591 295.105988,346.661591 308.992493,346.661591 
	C308.992493,344.503815 308.992493,342.682953 308.992493,340.862091 
	C308.992554,299.696869 309.008087,258.531586 308.960419,217.366409 
	C308.956970,214.393021 308.876678,211.350845 312.321625,210.429886 
	C319.914642,208.399933 327.593048,206.689392 335.428162,204.802399 
	C335.428162,212.135666 335.428162,218.024185 335.428162,223.848633 
	C348.892365,223.848633 362.122925,223.848633 375.958557,223.848633 
	C375.958557,219.193909 375.622894,214.854645 376.055359,210.593323 
	C376.466827,206.539261 378.613892,203.209396 383.069214,202.616776 
	C387.607178,202.013168 390.114075,204.934753 391.760132,208.679550 
	C392.354919,210.032684 392.852539,211.556854 392.875610,213.011200 
	C392.988647,220.143997 392.926880,227.279541 392.926880,233.966705 
	C380.388184,238.698761 368.183685,243.036362 356.195374,247.906143 
	C344.709290,252.571930 337.409515,261.560791 335.259399,273.489777 
	C333.387024,283.877991 332.506592,294.684601 333.082397,305.202637 
	C333.591248,314.497314 335.733307,324.004883 338.918701,332.777832 
	C343.372040,345.042816 354.238892,348.501984 366.313843,348.927582 
	C377.796539,349.332306 385.522156,343.620880 390.745575,333.875458 
	C391.535156,332.402313 392.205475,330.865234 392.930969,329.357697 
	C393.242950,329.487244 393.554901,329.616760 393.866882,329.746277 
	C393.866882,335.361328 393.866882,340.976349 393.866882,346.694763 
	C407.687408,346.694763 421.245941,346.694763 434.908813,346.694763 
	C434.908813,300.744598 435.225708,255.097656 434.726318,209.459656 
	C434.564941,194.711380 426.612793,183.710419 413.361633,176.871414 
	C400.825897,170.401657 387.422729,170.104813 373.854126,171.638000 
	C359.446655,173.265991 346.590851,177.753082 338.856262,191.889832 
	C338.856262,184.892990 338.856262,177.896149 338.856262,170.806931 
	C324.735565,170.771194 315.177307,177.014175 308.748322,188.913315 
	C308.748322,183.644699 308.748322,178.376083 308.748322,173.045349 
	C281.618561,173.045349 254.850388,173.045349 227.841125,173.045349 
	C224.099243,207.666962 220.389297,241.993195 216.685333,276.263916 
	C213.418137,241.868103 210.150604,207.468765 206.880219,173.039429 
	C166.465027,173.039429 126.703033,173.039429 86.471237,173.039429 
	C82.723648,208.912811 79.004387,244.514984 75.507530,277.988190 
	C72.373138,244.502197 69.041527,208.909286 65.699577,173.205841 
	C51.512074,173.205841 37.807461,173.205841 23.859379,173.205841 
	C33.162346,231.358459 42.405411,289.136627 51.637871,346.848511 
	C68.104919,346.848511 83.915291,346.848511 100.053162,346.848511 
	C108.369713,295.796967 116.670853,244.840042 124.971992,193.883118 
	C125.362549,193.927826 125.753113,193.972534 126.143677,194.017242 
	C126.143677,244.931198 126.143677,295.845123 126.143677,346.674713 
	C140.089096,346.674713 153.653000,346.674713 167.126022,346.674713 
	C167.315201,346.040253 167.489075,345.729156 167.489288,345.417969 
	C167.521378,295.587067 167.541000,245.756149 168.201920,196.107071 
M487.849731,339.192413 
	C488.160828,338.606903 488.474213,338.022614 488.782684,337.435699 
	C494.085815,327.347809 491.784698,314.198029 483.535553,307.446747 
	C473.014465,298.836121 460.815002,298.899994 450.372559,307.620422 
	C442.281403,314.377319 440.147522,327.753448 445.411072,337.673218 
	C453.364410,352.662292 476.056152,355.664215 487.849731,339.192413 
M132.584442,132.066498 
	C130.471878,132.066498 128.359314,132.066498 126.124359,132.066498 
	C126.124359,141.998596 126.124359,151.395096 126.124359,160.909164 
	C139.962128,160.909164 153.529587,160.909164 167.264816,160.909164 
	C167.264816,151.235245 167.264816,141.824326 167.264816,132.066498 
	C155.834244,132.066498 144.701508,132.066498 132.584442,132.066498 
z"/>
<path fill="#ECECEC" opacity="1.000000" stroke="none" 
	d="
M167.561096,195.925247 
	C167.541000,245.756149 167.521378,295.587067 167.489288,345.417969 
	C167.489075,345.729156 167.315201,346.040253 167.126022,346.674713 
	C153.653000,346.674713 140.089096,346.674713 126.143677,346.674713 
	C126.143677,295.845123 126.143677,244.931198 126.143677,194.017242 
	C125.753113,193.972534 125.362549,193.927826 124.971992,193.883118 
	C116.670853,244.840042 108.369713,295.796967 100.053162,346.848511 
	C83.915291,346.848511 68.104919,346.848511 51.637871,346.848511 
	C42.405411,289.136627 33.162346,231.358459 23.859379,173.205841 
	C37.807461,173.205841 51.512074,173.205841 65.699577,173.205841 
	C69.041527,208.909286 72.373138,244.502197 75.507530,277.988190 
	C79.004387,244.514984 82.723648,208.912811 86.471237,173.039429 
	C126.703033,173.039429 166.465027,173.039429 206.880219,173.039429 
	C210.150604,207.468765 213.418137,241.868103 216.685333,276.263916 
	C220.389297,241.993195 224.099243,207.666962 227.841125,173.045349 
	C254.850388,173.045349 281.618561,173.045349 308.748322,173.045349 
	C308.748322,178.376083 308.748322,183.644699 308.748322,188.913315 
	C315.177307,177.014175 324.735565,170.771194 338.856262,170.806931 
	C338.856262,177.896149 338.856262,184.892990 338.856262,191.889832 
	C346.590851,177.753082 359.446655,173.265991 373.854126,171.638000 
	C387.422729,170.104813 400.825897,170.401657 413.361633,176.871414 
	C426.612793,183.710419 434.564941,194.711380 434.726318,209.459656 
	C435.225708,255.097656 434.908813,300.744598 434.908813,346.694763 
	C421.245941,346.694763 407.687408,346.694763 393.866882,346.694763 
	C393.866882,340.976349 393.866882,335.361328 393.866882,329.746277 
	C393.554901,329.616760 393.242950,329.487244 392.930969,329.357697 
	C392.205475,330.865234 391.535156,332.402313 390.745575,333.875458 
	C385.522156,343.620880 377.796539,349.332306 366.313843,348.927582 
	C354.238892,348.501984 343.372040,345.042816 338.918701,332.777832 
	C335.733307,324.004883 333.591248,314.497314 333.082397,305.202637 
	C332.506592,294.684601 333.387024,283.877991 335.259399,273.489777 
	C337.409515,261.560791 344.709290,252.571930 356.195374,247.906143 
	C368.183685,243.036362 380.388184,238.698761 392.926880,233.966705 
	C392.926880,227.279541 392.988647,220.143997 392.875610,213.011200 
	C392.852539,211.556854 392.354919,210.032684 391.760132,208.679550 
	C390.114075,204.934753 387.607178,202.013168 383.069214,202.616776 
	C378.613892,203.209396 376.466827,206.539261 376.055359,210.593323 
	C375.622894,214.854645 375.958557,219.193909 375.958557,223.848633 
	C362.122925,223.848633 348.892365,223.848633 335.428162,223.848633 
	C335.428162,218.024185 335.428162,212.135666 335.428162,204.802399 
	C327.593048,206.689392 319.914642,208.399933 312.321625,210.429886 
	C308.876678,211.350845 308.956970,214.393021 308.960419,217.366409 
	C309.008087,258.531586 308.992554,299.696869 308.992493,340.862091 
	C308.992493,342.682953 308.992493,344.503815 308.992493,346.661591 
	C295.105988,346.661591 281.398895,346.661591 267.303802,346.661591 
	C267.303802,295.946228 267.303802,245.345047 267.303802,194.743851 
	C266.902496,194.697937 266.501190,194.652023 266.099915,194.606094 
	C257.852631,245.249420 249.605362,295.892731 241.324493,346.742432 
	C225.121170,346.742432 209.192429,346.742432 192.841202,346.742432 
	C184.884094,296.834137 176.921295,246.890167 168.996063,196.146973 
	C168.574493,193.336395 168.115387,191.325058 167.656281,189.313721 
	C167.410217,189.339523 167.164169,189.365311 166.918106,189.391113 
	C167.132446,191.569153 167.346771,193.747208 167.561096,195.925247 
M374.928253,296.467957 
	C375.257904,300.759735 375.252136,305.111816 376.010376,309.326508 
	C376.787842,313.648193 379.489532,316.424347 384.298492,316.375336 
	C388.983185,316.327576 391.127197,313.375092 392.014008,309.317596 
	C392.576874,306.742279 392.894653,304.061951 392.908508,301.426514 
	C392.989502,286.029266 392.948212,270.631378 392.948212,255.114456 
	C381.711456,258.039368 375.338989,265.676147 374.999664,276.519684 
	C374.802094,282.833710 374.940826,289.158264 374.928253,296.467957 
z"/>
<path fill="#EBEBEB" opacity="1.000000" stroke="none" 
	d="
M487.649292,339.499847 
	C476.056152,355.664215 453.364410,352.662292 445.411072,337.673218 
	C440.147522,327.753448 442.281403,314.377319 450.372559,307.620422 
	C460.815002,298.899994 473.014465,298.836121 483.535553,307.446747 
	C491.784698,314.198029 494.085815,327.347809 488.782684,337.435699 
	C488.474213,338.022614 488.160828,338.606903 487.649292,339.499847 
z"/>
<path fill="#EAEAEA" opacity="1.000000" stroke="none" 
	d="
M133.076599,132.066498 
	C144.701508,132.066498 155.834244,132.066498 167.264816,132.066498 
	C167.264816,141.824326 167.264816,151.235245 167.264816,160.909164 
	C153.529587,160.909164 139.962128,160.909164 126.124359,160.909164 
	C126.124359,151.395096 126.124359,141.998596 126.124359,132.066498 
	C128.359314,132.066498 130.471878,132.066498 133.076599,132.066498 
z"/>
<path fill="#909090" opacity="1.000000" stroke="none" 
	d="
M167.881500,196.016159 
	C167.346771,193.747208 167.132446,191.569153 166.918106,189.391113 
	C167.164169,189.365311 167.410217,189.339523 167.656281,189.313721 
	C168.115387,191.325058 168.574493,193.336395 168.950790,195.732162 
	C168.645950,196.113419 168.423935,196.110245 167.881500,196.016159 
z"/>
<path fill="#262626" opacity="1.000000" stroke="none" 
	d="
M374.928223,295.973022 
	C374.940826,289.158264 374.802094,282.833710 374.999664,276.519684 
	C375.338989,265.676147 381.711456,258.039368 392.948212,255.114456 
	C392.948212,270.631378 392.989502,286.029266 392.908508,301.426514 
	C392.894653,304.061951 392.576874,306.742279 392.014008,309.317596 
	C391.127197,313.375092 388.983185,316.327576 384.298492,316.375336 
	C379.489532,316.424347 376.787842,313.648193 376.010376,309.326508 
	C375.252136,305.111816 375.257904,300.759735 374.928223,295.973022 
z"/>
</svg>