<svg version="1.1" id="Layer_1" xmlns="http://www.w3.org/2000/svg" xmlns:xlink="http://www.w3.org/1999/xlink" x="0px" y="0px"
	 width="100%" viewBox="0 0 500 500" enable-background="new 0 0 500 500" xml:space="preserve">
<path fill="#FFFFFF" opacity="1.000000" stroke="none" 
	d="
M241.000000,501.000000 
	C160.666687,501.000000 80.833374,501.000000 1.000043,501.000000 
	C1.000029,334.333405 1.000029,167.666779 1.000014,1.000132 
	C167.666565,1.000088 334.333130,1.000088 500.999756,1.000044 
	C500.999847,167.666519 500.999847,334.333038 500.999939,500.999786 
	C414.500000,501.000000 328.000000,501.000000 241.000000,501.000000 
M167.966904,194.295868 
	C168.276505,194.224533 168.586105,194.153214 168.985748,194.905884 
	C176.964645,244.851135 184.943558,294.796387 192.925552,344.760986 
	C209.153976,344.760986 225.079437,344.760986 241.265396,344.760986 
	C249.569412,293.774597 257.842407,242.978745 266.115387,192.182892 
	C266.504517,192.223648 266.893677,192.264389 267.282837,192.305145 
	C267.282837,243.056458 267.282837,293.807770 267.282837,344.670593 
	C281.422424,344.670593 295.127991,344.670593 308.980896,344.670593 
	C308.980896,337.186829 308.980865,330.032928 308.980896,322.879028 
	C308.980927,286.881042 308.934723,250.882812 309.098846,214.885559 
	C309.108429,212.784012 310.259399,209.573181 311.834534,208.783035 
	C319.295288,205.040558 327.459717,204.046753 335.475037,203.625900 
	C335.475037,210.204483 335.475037,216.096588 335.475037,221.917435 
	C348.909912,221.917435 362.031464,221.917435 375.956024,221.917435 
	C375.956024,217.246475 375.617401,212.754242 376.054901,208.338898 
	C376.461273,204.236984 378.841217,200.988586 383.209412,200.472931 
	C387.674500,199.945816 390.223907,202.921997 391.836578,206.684708 
	C392.417847,208.040878 392.893280,209.563400 392.915527,211.017700 
	C393.024750,218.154221 392.965088,225.293320 392.965088,232.109161 
	C380.807739,236.618484 368.899048,240.774475 357.197021,245.447968 
	C345.000946,250.318771 337.232483,259.623108 335.089508,272.406738 
	C333.369934,282.664581 332.582581,293.289642 333.147369,303.655518 
	C333.636505,312.633453 335.647308,321.822296 338.704987,330.297577 
	C343.284760,342.992096 354.383270,346.618469 366.835144,346.886383 
	C378.314362,347.133331 385.898376,341.147064 390.950378,331.336487 
	C391.684052,329.911743 392.362030,328.458405 393.065796,327.018280 
	C393.376099,327.148193 393.686401,327.278137 393.996704,327.408051 
	C393.996704,333.173523 393.996704,338.938995 393.996704,344.660706 
	C407.825165,344.660706 421.379791,344.660706 434.974182,344.660706 
	C434.974182,299.495972 435.125458,254.670807 434.898895,209.847565 
	C434.809692,192.198425 425.179962,179.217255 408.671875,172.838974 
	C396.975220,168.319702 384.914490,168.298553 372.720123,169.833145 
	C358.613831,171.608322 346.299194,176.336975 338.971344,190.091431 
	C338.971344,183.056442 338.971344,176.021439 338.971344,168.823853 
	C324.825439,168.850357 315.118011,174.923325 309.004272,187.392670 
	C309.004272,182.022034 309.004272,176.651398 309.004272,171.046555 
	C281.812561,171.046555 255.058777,171.046555 227.914581,171.046555 
	C224.150955,205.911423 220.404358,240.618515 216.689224,275.034149 
	C213.420105,240.519516 210.130005,205.783096 206.846405,171.115570 
	C166.442184,171.115570 126.691956,171.115570 86.529373,171.115570 
	C82.777054,207.102890 79.054779,242.802109 75.526642,276.639404 
	C72.347809,242.733078 68.995689,206.978531 65.631165,171.091614 
	C51.511387,171.091614 37.906845,171.091614 23.925985,171.091614 
	C33.199139,229.127090 42.432171,286.911469 51.684814,344.818604 
	C67.982010,344.818604 83.925064,344.818604 100.004929,344.818604 
	C108.392426,293.326050 116.755188,241.985382 125.117950,190.644699 
	C125.421883,190.680954 125.725807,190.717224 126.029739,190.753479 
	C126.029739,242.030334 126.029739,293.307190 126.029739,344.628906 
	C139.974915,344.628906 153.655884,344.628906 167.464432,344.628906 
	C167.464432,294.261841 167.464432,244.266891 167.966904,194.295868 
M491.587158,323.841553 
	C490.762207,314.435028 486.011017,307.703308 477.589844,303.583130 
	C467.112549,298.456970 454.324921,301.619568 447.274200,310.980499 
	C440.387085,320.124237 440.974426,333.817474 448.613251,342.197205 
	C456.766327,351.141083 469.807465,353.091766 479.852295,346.814148 
	C488.015503,341.712463 491.808411,334.234222 491.587158,323.841553 
M127.748764,130.098343 
	C127.157249,130.513489 126.053978,130.923172 126.049484,131.344589 
	C125.950867,140.575516 125.974220,149.807724 125.974220,158.755600 
	C140.206757,158.755600 153.769745,158.755600 167.243622,158.755600 
	C167.243622,149.122116 167.243622,139.840866 167.243622,130.093903 
	C154.263260,130.093903 141.486816,130.093903 127.748764,130.098343 
z"/>
<path fill="#010101" opacity="1.000000" stroke="none" 
	d="
M167.464432,194.271942 
	C167.464432,244.266891 167.464432,294.261841 167.464432,344.628906 
	C153.655884,344.628906 139.974915,344.628906 126.029739,344.628906 
	C126.029739,293.307190 126.029739,242.030334 126.029739,190.753479 
	C125.725807,190.717224 125.421883,190.680954 125.117950,190.644699 
	C116.755188,241.985382 108.392426,293.326050 100.004929,344.818604 
	C83.925064,344.818604 67.982010,344.818604 51.684814,344.818604 
	C42.432171,286.911469 33.199139,229.127090 23.925985,171.091614 
	C37.906845,171.091614 51.511387,171.091614 65.631165,171.091614 
	C68.995689,206.978531 72.347809,242.733078 75.526642,276.639404 
	C79.054779,242.802109 82.777054,207.102890 86.529373,171.115570 
	C126.691956,171.115570 166.442184,171.115570 206.846405,171.115570 
	C210.130005,205.783096 213.420105,240.519516 216.689224,275.034149 
	C220.404358,240.618515 224.150955,205.911423 227.914581,171.046555 
	C255.058777,171.046555 281.812561,171.046555 309.004272,171.046555 
	C309.004272,176.651398 309.004272,182.022034 309.004272,187.392670 
	C315.118011,174.923325 324.825439,168.850357 338.971344,168.823853 
	C338.971344,176.021439 338.971344,183.056442 338.971344,190.091431 
	C346.299194,176.336975 358.613831,171.608322 372.720123,169.833145 
	C384.914490,168.298553 396.975220,168.319702 408.671875,172.838974 
	C425.179962,179.217255 434.809692,192.198425 434.898895,209.847565 
	C435.125458,254.670807 434.974182,299.495972 434.974182,344.660706 
	C421.379791,344.660706 407.825165,344.660706 393.996704,344.660706 
	C393.996704,338.938995 393.996704,333.173523 393.996704,327.408051 
	C393.686401,327.278137 393.376099,327.148193 393.065796,327.018280 
	C392.362030,328.458405 391.684052,329.911743 390.950378,331.336487 
	C385.898376,341.147064 378.314362,347.133331 366.835144,346.886383 
	C354.383270,346.618469 343.284760,342.992096 338.704987,330.297577 
	C335.647308,321.822296 333.636505,312.633453 333.147369,303.655518 
	C332.582581,293.289642 333.369934,282.664581 335.089508,272.406738 
	C337.232483,259.623108 345.000946,250.318771 357.197021,245.447968 
	C368.899048,240.774475 380.807739,236.618484 392.965088,232.109161 
	C392.965088,225.293320 393.024750,218.154221 392.915527,211.017700 
	C392.893280,209.563400 392.417847,208.040878 391.836578,206.684708 
	C390.223907,202.921997 387.674500,199.945816 383.209412,200.472931 
	C378.841217,200.988586 376.461273,204.236984 376.054901,208.338898 
	C375.617401,212.754242 375.956024,217.246475 375.956024,221.917435 
	C362.031464,221.917435 348.909912,221.917435 335.475037,221.917435 
	C335.475037,216.096588 335.475037,210.204483 335.475037,203.625900 
	C327.459717,204.046753 319.295288,205.040558 311.834534,208.783035 
	C310.259399,209.573181 309.108429,212.784012 309.098846,214.885559 
	C308.934723,250.882812 308.980927,286.881042 308.980896,322.879028 
	C308.980865,330.032928 308.980896,337.186829 308.980896,344.670593 
	C295.127991,344.670593 281.422424,344.670593 267.282837,344.670593 
	C267.282837,293.807770 267.282837,243.056458 267.282837,192.305145 
	C266.893677,192.264389 266.504517,192.223648 266.115387,192.182892 
	C257.842407,242.978745 249.569412,293.774597 241.265396,344.760986 
	C225.079437,344.760986 209.153976,344.760986 192.925552,344.760986 
	C184.943558,294.796387 176.964645,244.851135 169.032166,194.093842 
	C168.574646,191.019485 168.070709,188.757172 167.566788,186.494843 
	C167.342941,186.537811 167.119110,186.580795 166.895264,186.623764 
	C167.084991,189.173157 167.274719,191.722549 167.464432,194.271942 
M391.726898,308.853363 
	C392.337036,290.301910 392.947174,271.750458 393.564941,252.966751 
	C382.332184,255.471939 375.367737,263.357910 375.044830,273.797882 
	C374.751587,283.278839 374.930450,292.776917 375.040131,302.265839 
	C375.062805,304.227600 375.109375,306.630127 376.182068,308.040894 
	C378.039734,310.483978 380.390167,313.209564 383.115234,314.173828 
	C386.725983,315.451447 389.856903,313.370483 391.726898,308.853363 
M266.148529,188.762543 
	C266.444397,189.475082 266.740295,190.187622 267.036194,190.900146 
	C267.275879,190.832825 267.515564,190.765503 267.755249,190.698166 
	C267.755249,188.786026 267.755249,186.873886 267.755249,184.210175 
	C267.126923,185.948105 266.748199,186.995667 266.148529,188.762543 
z"/>
<path fill="#020202" opacity="1.000000" stroke="none" 
	d="
M491.635254,324.261658 
	C491.808411,334.234222 488.015503,341.712463 479.852295,346.814148 
	C469.807465,353.091766 456.766327,351.141083 448.613251,342.197205 
	C440.974426,333.817474 440.387085,320.124237 447.274200,310.980499 
	C454.324921,301.619568 467.112549,298.456970 477.589844,303.583130 
	C486.011017,307.703308 490.762207,314.435028 491.635254,324.261658 
z"/>
<path fill="#010101" opacity="1.000000" stroke="none" 
	d="
M128.229584,130.096130 
	C141.486816,130.093903 154.263260,130.093903 167.243622,130.093903 
	C167.243622,139.840866 167.243622,149.122116 167.243622,158.755600 
	C153.769745,158.755600 140.206757,158.755600 125.974220,158.755600 
	C125.974220,149.807724 125.950867,140.575516 126.049484,131.344589 
	C126.053978,130.923172 127.157249,130.513489 128.229584,130.096130 
z"/>
<path fill="#848484" opacity="1.000000" stroke="none" 
	d="
M167.715668,194.283905 
	C167.274719,191.722549 167.084991,189.173157 166.895264,186.623764 
	C167.119110,186.580795 167.342941,186.537811 167.566788,186.494843 
	C168.070709,188.757172 168.574646,191.019485 168.987152,193.681854 
	C168.586105,194.153214 168.276505,194.224533 167.715668,194.283905 
z"/>
<path fill="#FCFCFC" opacity="1.000000" stroke="none" 
	d="
M391.532440,309.202637 
	C389.856903,313.370483 386.725983,315.451447 383.115234,314.173828 
	C380.390167,313.209564 378.039734,310.483978 376.182068,308.040894 
	C375.109375,306.630127 375.062805,304.227600 375.040131,302.265839 
	C374.930450,292.776917 374.751587,283.278839 375.044830,273.797882 
	C375.367737,263.357910 382.332184,255.471939 393.564941,252.966751 
	C392.947174,271.750458 392.337036,290.301910 391.532440,309.202637 
z"/>
<path fill="#575757" opacity="1.000000" stroke="none" 
	d="
M266.259003,188.402893 
	C266.748199,186.995667 267.126923,185.948105 267.755249,184.210175 
	C267.755249,186.873886 267.755249,188.786026 267.755249,190.698166 
	C267.515564,190.765503 267.275879,190.832825 267.036194,190.900146 
	C266.740295,190.187622 266.444397,189.475082 266.259003,188.402893 
z"/>
</svg>